<?xml version="1.0" encoding="UTF-8"?>
<svg version="1.1" xmlns="http://www.w3.org/2000/svg" width="192" height="192">
<path d="M0 0 C63.36 0 126.72 0 192 0 C192 63.36 192 126.72 192 192 C128.64 192 65.28 192 0 192 C0 128.64 0 65.28 0 0 Z " fill="#090F15" transform="translate(0,0)"/>
<path d="M0 0 C63.36 0 126.72 0 192 0 C192 63.36 192 126.72 192 192 C128.64 192 65.28 192 0 192 C0 128.64 0 65.28 0 0 Z M23.0252533 26.60400391 C21.44741452 31.8303556 21.57497983 36.9055115 21.59594727 42.3359375 C21.58908401 43.57563293 21.58222076 44.81532837 21.57514954 46.09259033 C21.56001341 49.48114578 21.55837917 52.86914979 21.56409192 56.25769806 C21.56718858 59.09072663 21.56108616 61.9237057 21.55505317 64.75672722 C21.54102209 71.4413759 21.54255786 78.12589674 21.55395508 84.81054688 C21.56544001 91.69871898 21.55135144 98.58650189 21.5245586 105.47462273 C21.50238577 111.39753391 21.49576761 117.32032305 21.50163502 123.24327278 C21.50500145 126.77692109 21.50261054 130.31031984 21.48538399 133.84393311 C21.46701218 137.78413093 21.48111833 141.72385161 21.49829102 145.6640625 C21.48862305 146.82995911 21.47895508 147.99585571 21.46899414 149.19708252 C21.53680791 156.6209714 22.34904869 160.32284569 27.6328125 165.64453125 C31.79473551 168.90216208 33.77615881 170.12298438 39.01481628 170.14717102 C40.07604706 170.15432632 41.13727783 170.16148163 42.23066711 170.16885376 C43.40002304 170.17154266 44.56937897 170.17423157 45.77416992 170.17700195 C47.00192139 170.18357315 48.22967285 170.19014435 49.49462891 170.19691467 C53.57324463 170.21668701 57.65182097 170.22832004 61.73046875 170.23828125 C63.13507927 170.24232889 64.53968959 170.24644581 65.9442997 170.25063133 C72.54535409 170.26968756 79.14639728 170.28391591 85.7474739 170.2922433 C93.36229342 170.30200837 100.97682168 170.32830665 108.59153861 170.36874419 C114.47954018 170.39893643 120.36745844 170.41371523 126.2555359 170.41702431 C129.77086797 170.41937192 133.28588905 170.42829347 136.80113792 170.45348549 C140.72713841 170.48116545 144.65275822 170.47692552 148.57885742 170.4699707 C150.31770958 170.48918579 150.31770958 170.48918579 152.09169006 170.50878906 C158.63104265 170.46656196 162.69802917 169.93159481 168 166 C172.15426468 161.50890305 174.24695998 157.91646065 174.26069641 151.77590942 C174.26778122 150.71889832 174.27486603 149.66188721 174.28216553 148.57284546 C174.27968811 147.41845978 174.27721069 146.2640741 174.2746582 145.07470703 C174.27976913 143.85481079 174.28488007 142.63491455 174.29014587 141.37805176 C174.30166545 138.03493538 174.30411518 134.69206693 174.30158257 131.348948 C174.30051224 128.55579466 174.30539794 125.76266413 174.310188 122.96951568 C174.32128146 116.37793447 174.32172179 109.78641025 174.31567383 103.19482422 C174.30963604 96.401054 174.32194032 89.60749098 174.3432439 82.81375611 C174.36087531 76.97582466 174.36685876 71.13795907 174.36360615 65.30000198 C174.36179528 61.81554587 174.3644096 58.33123751 174.37832069 54.84680557 C174.39326081 50.95914877 174.38391539 47.07175455 174.37231445 43.18408203 C174.37995819 42.03374481 174.38760193 40.88340759 174.39547729 39.69821167 C174.35177534 33.07747503 173.96426978 28.21353792 169.28125 23.13671875 C168.6934375 22.65847656 168.105625 22.18023437 167.5 21.6875 C166.9121875 21.19636719 166.324375 20.70523437 165.71875 20.19921875 C162.50116376 17.95422107 159.62983233 17.86739483 155.83369446 17.83937073 C154.22933281 17.82430229 154.22933281 17.82430229 152.59255981 17.80892944 C151.41901947 17.80309845 150.24547913 17.79726746 149.03637695 17.79125977 C147.80033218 17.78147598 146.56428741 17.7716922 145.29078674 17.76161194 C141.18996118 17.73163579 137.08917043 17.70996088 132.98828125 17.69140625 C132.28989254 17.68810893 131.59150383 17.68481161 130.87195182 17.68141437 C124.28155994 17.65063127 117.69116339 17.62393218 111.10072041 17.60699558 C102.68122253 17.58510243 94.26236342 17.54315711 85.84312087 17.47355801 C79.91772267 17.4262447 73.99249634 17.40205224 68.06691521 17.3947987 C64.53070888 17.3898528 60.99522284 17.37487608 57.45922279 17.3350544 C53.50949299 17.29115956 49.56057761 17.29510127 45.6105957 17.30297852 C44.44717651 17.28297791 43.28375732 17.26297729 42.08508301 17.24237061 C33.25754775 17.32133035 28.37207877 19.55340122 23.0252533 26.60400391 Z " fill="#091016" transform="translate(0,0)"/>
<path d="M0 0 C1.67656174 -0.00461494 1.67656174 -0.00461494 3.38699341 -0.00932312 C4.59330414 -0.0021376 5.79961487 0.00504791 7.04248047 0.01245117 C8.27884247 0.01290939 9.51520447 0.01336761 10.78903198 0.01383972 C14.07338286 0.01763718 17.35754046 0.03064735 20.6418457 0.04730225 C23.99023672 0.06077278 27.33859457 0.05757799 30.68701172 0.05737305 C33.22216998 0.06228766 35.75732666 0.06811573 38.29248047 0.07495117 C39.50283966 0.076064 40.71319885 0.07717682 41.9602356 0.07832336 C43.0716391 0.08470322 44.1830426 0.09108307 45.328125 0.09765625 C46.31168976 0.10146805 47.29525452 0.10527985 48.30862427 0.10920715 C50.53466797 0.24291992 50.53466797 0.24291992 51.53466797 1.24291992 C52.09226886 7.71286043 50.37131706 13.37228703 48.59716797 19.55541992 C48.319375 20.55637695 48.04158203 21.55733398 47.75537109 22.58862305 C45.70721501 29.89782584 45.70721501 29.89782584 44.53466797 32.24291992 C45.37771484 32.2197168 46.22076172 32.19651367 47.08935547 32.17260742 C48.73291016 32.14553711 48.73291016 32.14553711 50.40966797 32.11791992 C52.04548828 32.08311523 52.04548828 32.08311523 53.71435547 32.04760742 C56.53466797 32.24291992 56.53466797 32.24291992 58.53466797 34.24291992 C58.30000383 39.08370579 56.89019717 41.54461131 53.72216797 45.11791992 C49.7777575 49.72182577 46.08085955 54.43397134 42.47216797 59.30541992 C37.94587877 65.38660087 33.32997966 71.37011917 28.53466797 77.24291992 C27.79474609 78.15686523 27.05482422 79.07081055 26.29248047 80.01245117 C24.0536713 82.76761869 21.79766773 85.50760624 19.53466797 88.24291992 C18.93783203 88.97768555 18.34099609 89.71245117 17.72607422 90.46948242 C13.06678058 96.043418 7.67852861 102.34914606 0.34716797 103.93041992 C-3.45114814 103.00194265 -5.51804848 101.85147578 -8.46533203 99.24291992 C-9.35914713 96.14434731 -9.254861 93.12259744 -9.1940918 89.91625977 C-9.19978683 88.9727919 -9.20548187 88.02932404 -9.21134949 87.05726624 C-9.22246443 83.93870243 -9.19038432 80.8222348 -9.15673828 77.70385742 C-9.15316239 75.53960415 -9.1518035 73.37534617 -9.15257263 71.21109009 C-9.14787984 66.67648148 -9.1230239 62.14258403 -9.08276367 57.6081543 C-9.03173223 51.78578279 -9.02032237 45.9641915 -9.02259922 40.14162254 C-9.02178493 35.67386377 -9.00535565 31.20627675 -8.98359489 26.73857498 C-8.97402682 24.59110438 -8.9681308 22.44361427 -8.96591377 20.2961235 C-8.95943443 17.30067263 -8.93323054 14.30606233 -8.90112305 11.31079102 C-8.9024826 10.41724411 -8.90384216 9.5236972 -8.90524292 8.60307312 C-8.86647034 6.13900757 -8.86647034 6.13900757 -8.46533203 2.24291992 C-5.08651844 -0.00962247 -3.95445755 -0.00572008 0 0 Z " fill="#006BD2" transform="translate(64.46533203125,41.757080078125)"/>
<path d="M0 0 C1.23984146 -0.00554901 2.47968292 -0.01109802 3.75709534 -0.01681519 C7.14184101 -0.02657364 10.52504785 -0.0140617 13.90962911 0.00946999 C17.45955985 0.02964929 21.00945896 0.02369584 24.55943298 0.0213623 C30.51859957 0.02141579 36.47744822 0.04112429 42.43652344 0.07324219 C49.31729507 0.11014848 56.19765073 0.11891457 63.07850844 0.11194468 C69.71057799 0.10563108 76.34250555 0.11640866 82.97454643 0.13591003 C85.79139676 0.14406557 88.60817434 0.14679701 91.42503548 0.1452179 C95.36033374 0.14417264 99.29525785 0.16839244 103.23046875 0.1953125 C104.39479431 0.1923819 105.55911987 0.18945129 106.75872803 0.18643188 C113.40515622 0.25659515 118.31736739 0.6328556 123.41381836 5.33398438 C123.89206055 5.92179687 124.37030273 6.50960938 124.86303711 7.11523438 C125.35416992 7.70304687 125.84530273 8.29085938 126.35131836 8.89648438 C128.58141581 12.09271525 128.68149925 14.93491132 128.70443726 18.70561218 C128.71303772 19.75835831 128.72163818 20.81110443 128.73049927 21.89575195 C128.73688919 23.62801025 128.73688919 23.62801025 128.7434082 25.39526367 C128.75567444 27.22007011 128.75567444 27.22007011 128.76818848 29.08174133 C128.79305107 33.11764192 128.8097151 37.15350504 128.82397461 41.18945312 C128.82933592 42.58073241 128.83471343 43.97201163 128.84010696 45.36329079 C128.86173309 51.15292176 128.88046772 56.94254998 128.89172935 62.73221111 C128.90795519 71.01850036 128.94110207 79.30431973 128.9981302 87.59043187 C129.03689359 93.42241624 129.05636968 99.25427529 129.06164992 105.08638507 C129.0652953 108.56660501 129.07722795 112.04632345 129.10975266 115.52640343 C129.14556344 119.41381817 129.14144613 123.30064847 129.1340332 127.18823242 C129.15043854 128.33295013 129.16684387 129.47766785 129.18374634 130.65707397 C129.12962383 137.59828539 128.12989032 142.27276293 123.55053711 147.61523438 C119.27244381 151.58774958 116.17403742 152.73579811 110.40873718 152.7624054 C109.34468658 152.7695607 108.28063599 152.776716 107.18434143 152.78408813 C106.01700974 152.78677704 104.84967804 152.78946594 103.64697266 152.79223633 C102.41746887 152.79880753 101.18796509 152.80537872 99.92120361 152.81214905 C95.84321856 152.83189693 91.76527284 152.84354882 87.68725586 152.85351562 C86.28231092 152.85756391 84.87736618 152.86168085 83.47242165 152.86586571 C76.87190668 152.88491193 70.27140287 152.89914455 63.67086571 152.90747768 C56.05604646 152.91725058 48.44151785 152.94357354 40.826801 152.98397857 C34.93794564 153.01415188 29.04917354 153.02894766 23.16024238 153.03225869 C19.64439829 153.03460768 16.12886491 153.0435479 12.61310387 153.06871986 C8.68940325 153.09635938 4.76608436 153.09216569 0.84228516 153.08520508 C-0.31897385 153.09801514 -1.48023285 153.1108252 -2.67668152 153.12402344 C-10.09467982 153.07599664 -13.77662128 152.26190372 -19.09399414 146.98242188 C-22.36479868 142.80366825 -23.57254031 140.82253574 -23.59663391 135.56245422 C-23.60378922 134.4928093 -23.61094452 133.42316437 -23.61831665 132.32110596 C-23.62100555 131.14239929 -23.62369446 129.96369263 -23.62646484 128.74926758 C-23.63303604 127.51176254 -23.63960724 126.27425751 -23.64637756 124.99925232 C-23.66615017 120.888171 -23.67778293 116.77712875 -23.68774414 112.66601562 C-23.69179176 111.25026111 -23.69590868 109.83450679 -23.70009422 108.41875267 C-23.71915049 101.76537253 -23.73337886 95.11200349 -23.74170619 88.4586013 C-23.75147143 80.78322227 -23.77777013 73.10813219 -23.81820709 65.43285495 C-23.84839836 59.49814465 -23.86317803 53.56351702 -23.86648721 47.62873143 C-23.86883491 44.08545473 -23.87775777 40.54248655 -23.90294838 36.99929237 C-23.93062625 33.0421596 -23.9263887 29.08540454 -23.91943359 25.12817383 C-23.93224365 23.95958832 -23.94505371 22.79100281 -23.95825195 21.58700562 C-23.91026131 14.09695018 -23.24188478 9.74428246 -18.06475639 4.10761738 C-12.74746404 -0.55382099 -6.74602008 -0.07698014 0 0 Z M-16.44946289 9.61523438 C-18.39424046 12.73577854 -18.70038798 15.12200643 -18.70343018 18.77012634 C-18.70906982 19.8117543 -18.71470947 20.85338226 -18.72052002 21.92657471 C-18.71647156 23.06382996 -18.7124231 24.20108521 -18.70825195 25.37280273 C-18.71175659 26.57479813 -18.71526123 27.77679352 -18.71887207 29.01521301 C-18.72616611 32.30868372 -18.72445635 35.60190313 -18.7181139 38.89535975 C-18.71304686 42.34435153 -18.71774742 45.79333263 -18.72088623 49.24232483 C-18.72452431 55.03518601 -18.71973145 60.82799618 -18.71020508 66.62084961 C-18.69932594 73.31348988 -18.70284276 80.00600823 -18.71385789 86.69864553 C-18.72294141 92.44823655 -18.72421068 98.19779092 -18.71898055 103.9473868 C-18.71586604 107.37979508 -18.71543712 110.81214612 -18.72205353 114.2445507 C-18.72891697 118.07250561 -18.71939679 121.90032462 -18.70825195 125.72827148 C-18.71230042 126.8635025 -18.71634888 127.99873352 -18.72052002 129.16836548 C-18.71488037 130.21281326 -18.70924072 131.25726105 -18.70343018 132.33335876 C-18.70267612 133.23797317 -18.70192207 134.14258757 -18.70114517 135.07461452 C-18.19824753 140.15114082 -16.30955859 143.34000166 -12.44946289 146.61523438 C-9.48735826 147.60260259 -7.54938742 147.74542366 -4.45951843 147.75567627 C-3.42912445 147.76138641 -2.39873047 147.76709656 -1.33711243 147.77297974 C-0.20718369 147.7740976 0.92274506 147.77521545 2.08691406 147.77636719 C3.87264832 147.78381454 3.87264832 147.78381454 5.69445801 147.79141235 C8.96111377 147.80352115 12.22773374 147.81097926 15.49440789 147.81542301 C17.53624958 147.81835569 19.57808568 147.82246088 21.61992455 147.82692719 C28.01114002 147.84059968 34.40234269 147.85026737 40.79357177 147.85412908 C48.16609848 147.85860842 55.53843965 147.87615143 62.91090995 147.90512967 C68.6129317 147.92676238 74.31490132 147.93683421 80.01696366 147.93817019 C83.42096637 147.93921716 86.82479462 147.94510143 90.22875404 147.96298981 C94.02797152 147.98002752 97.82673648 147.97817526 101.62597656 147.97167969 C102.74983261 147.98089447 103.87368866 147.99010925 105.03160095 147.99960327 C112.74857187 147.99099358 112.74857187 147.99099358 119.55053711 144.61523438 C124.66777584 139.29240273 124.13020961 133.53200592 124.09985352 126.57055664 C124.11518631 124.757314 124.11518631 124.757314 124.13082886 122.90744019 C124.15381982 119.60337983 124.15877616 116.30032495 124.15370226 112.99625516 C124.15155721 110.23289173 124.16134377 107.46962006 124.1709131 104.70627636 C124.19307425 98.18456637 124.19399469 91.66308681 124.18188477 85.14135742 C124.16980402 78.42457238 124.19443486 71.70862512 124.2370249 64.991983 C124.27230732 59.21425161 124.28425192 53.43678631 124.27774942 47.65895122 C124.27413141 44.21288339 124.27931661 40.76741334 124.3071785 37.32144356 C124.33710104 33.47706603 124.31835285 29.63374794 124.29516602 25.78930664 C124.31045349 24.65505753 124.32574097 23.52080841 124.3414917 22.35218811 C124.25784295 16.07510875 123.58368513 12.38134113 119.1298275 7.8161459 C116.07217837 5.4910725 113.17423325 5.48536658 109.48466492 5.46806335 C108.43744263 5.46090805 107.39022034 5.45375275 106.31126404 5.44638062 C104.58831871 5.44234726 104.58831871 5.44234726 102.83056641 5.43823242 C101.62056976 5.43166122 100.41057312 5.42509003 99.16390991 5.4183197 C95.15085606 5.39857278 91.13784216 5.38692002 87.12475586 5.37695312 C85.74209892 5.37290479 84.35944219 5.36878784 82.97678566 5.36460304 C76.48092221 5.34555706 69.98507008 5.33132441 63.48918408 5.32299107 C55.99548379 5.31321838 48.50207886 5.2868959 41.00848264 5.24649018 C35.21304472 5.21631522 29.41769141 5.20152094 23.62217647 5.19821006 C20.1622216 5.19586125 16.70258249 5.18692341 13.24271202 5.16174889 C9.38127595 5.13410574 5.52022767 5.13830356 1.65869141 5.14526367 C0.51613388 5.13245361 -0.62642365 5.11964355 -1.80360413 5.10644531 C-7.95553111 5.14691002 -11.86782798 5.31917491 -16.44946289 9.61523438 Z " fill="#006AD0" transform="translate(45.449462890625,17.384765625)"/>
<path d="M0 0 C0.83272934 0.00222061 1.66545868 0.00444122 2.52342224 0.00672913 C3.46432205 0.00680466 4.40522186 0.00688019 5.37463379 0.00695801 C6.39754013 0.01211929 7.42044647 0.01728058 8.47434998 0.02259827 C9.51614914 0.02401321 10.5579483 0.02542816 11.63131714 0.02688599 C14.97355467 0.03250372 18.31572629 0.04505922 21.65794373 0.05775452 C23.91770839 0.06276723 26.17747409 0.06733053 28.4372406 0.07142639 C33.98999763 0.08247891 39.54271597 0.09923428 45.09544373 0.12025452 C43.01188759 5.70134093 39.9180221 10.43176412 36.72044373 15.43275452 C36.10064636 16.40591614 35.480849 17.37907776 34.8422699 18.38172913 C30.05344222 25.81683746 24.94105497 32.92147513 19.52122498 39.90541077 C15.8407901 44.70802365 13.65950308 47.87177187 14.09544373 54.12025452 C17.39544373 54.12025452 20.69544373 54.12025452 24.09544373 54.12025452 C21.81567357 61.06024885 19.44322027 67.95673575 16.90794373 74.80775452 C16.55925232 75.8138678 16.21056091 76.81998108 15.8513031 77.85658264 C13.61766205 83.81165026 11.38314705 87.50317707 6.16453552 91.20545959 C3.62244386 92.32937906 1.84733231 92.43123915 -0.90455627 92.12025452 C-3.49579842 89.52901237 -3.14476594 87.76470154 -3.164505 84.23446655 C-3.1588855 83.41101242 -3.15326599 82.58755829 -3.1474762 81.739151 C-3.14937454 80.87239746 -3.15127289 80.00564392 -3.15322876 79.11262512 C-3.15694287 76.23877507 -3.14622412 73.36517598 -3.13502502 70.49134827 C-3.13383357 68.50120066 -3.13337999 66.51105249 -3.13363647 64.52090454 C-3.13207056 60.3470356 -3.12377204 56.1732523 -3.11036682 51.99940491 C-3.09336582 46.63665938 -3.08955272 41.27400798 -3.090312 35.91123867 C-3.09004071 31.801301 -3.08456625 27.6913841 -3.07731056 23.58145332 C-3.07411808 21.60340088 -3.07215514 19.62534607 -3.07141685 17.64729118 C-3.06926003 14.88880741 -3.06053046 12.13042555 -3.04981995 9.3719635 C-3.05027313 8.54648514 -3.05072632 7.72100677 -3.05119324 6.87051392 C-3.01306992 0.19024655 -3.01306992 0.19024655 0 0 Z " fill="#091017" transform="translate(63.90455627441406,46.87974548339844)"/>
<path d="M0 0 C2.93847653 -0.107834 5.87301151 -0.18721916 8.8125 -0.25 C9.64587891 -0.28351562 10.47925781 -0.31703125 11.33789062 -0.3515625 C12.54155273 -0.37089844 12.54155273 -0.37089844 13.76953125 -0.390625 C14.50792236 -0.41157227 15.24631348 -0.43251953 16.00708008 -0.45410156 C18 0 18 0 19.60327148 1.43200684 C21.74700838 5.37343255 21.39284996 9.12515026 21.34057617 13.54199219 C21.34123329 14.99127357 21.34123329 14.99127357 21.34190369 16.46983337 C21.33981421 19.66238637 21.31647523 22.85441378 21.29296875 26.046875 C21.28737337 28.26075961 21.283103 30.47464794 21.28010559 32.6885376 C21.26865228 38.51489521 21.23918069 44.3410284 21.20599365 50.16729736 C21.17530338 56.11280278 21.16160247 62.05834446 21.14648438 68.00390625 C21.11431165 79.66936943 21.06310923 91.33466605 21 103 C16.23046875 104.13330078 16.23046875 104.13330078 14.15625 102.93359375 C13.6096875 102.43988281 13.063125 101.94617188 12.5 101.4375 C10.76487598 100.02053496 10.76487598 100.02053496 9 99 C5.88035003 99.5804 4.43365068 100.62230425 2.0625 102.6875 C0 104 0 104 -2.9375 103.9375 C-6 103 -6 103 -8.5625 100.875 C-10.82623144 98.72702804 -10.82623144 98.72702804 -13.5625 99.0625 C-16.04529227 99.86737886 -16.04529227 99.86737886 -17.875 101.5625 C-21.17078901 103.79200433 -23.09546765 103.65075539 -27 103 C-30.06802912 101.03345244 -32.74936894 98.87613112 -35 96 C-35 94.68 -35 93.36 -35 92 C-31.62382266 92.38584884 -30.13745046 92.88316711 -27.5 95.125 C-25.17891021 97.26902568 -25.17891021 97.26902568 -22.4375 96.9375 C-19.95162487 96.12431808 -19.95162487 96.12431808 -18.0625 94.4375 C-15.16334289 92.41687535 -13.4732443 92.5137458 -10 93 C-8.989375 93.680625 -7.97875 94.36125 -6.9375 95.0625 C-4.22100429 97.25491349 -4.22100429 97.25491349 -1.375 96.9375 C1.05460685 96.11482868 1.05460685 96.11482868 2.9375 94.4375 C5.7857105 92.45238359 7.59753575 92.57469197 11 93 C12.32 93.99 13.64 94.98 15 96 C15.33 65.97 15.66 35.94 16 5 C10.39 5 4.78 5 -1 5 C-0.67 3.35 -0.34 1.7 0 0 Z " fill="#0071E0" transform="translate(122,42)"/>
<path d="M0 0 C1.08388504 -0.00412399 2.16777008 -0.00824799 3.28450012 -0.01249695 C4.46341827 -0.00171112 5.64233643 0.00907471 6.85697937 0.02018738 C8.73076012 0.01953026 8.73076012 0.01953026 10.64239502 0.01885986 C14.05955964 0.0205896 17.47617798 0.03561618 20.89324594 0.05658174 C24.46733755 0.07535832 28.04143674 0.07709975 31.61557007 0.08065796 C38.37992328 0.08997556 45.14413072 0.11458541 51.90841979 0.14470643 C59.61090789 0.17825936 67.31340302 0.19473868 75.01594603 0.20979273 C90.85716586 0.24113528 106.69824033 0.29389015 122.53935242 0.36076355 C122.86935242 1.02076355 123.19935242 1.68076355 123.53935242 2.36076355 C121.00446505 4.89565092 120.14309558 4.61101796 116.63169861 4.61231995 C115.59426514 4.61770279 114.55683167 4.62308563 113.48796082 4.62863159 C111.77364868 4.6224456 111.77364868 4.6224456 110.02470398 4.61613464 C108.82460693 4.6197551 107.62450989 4.62337555 106.38804626 4.62710571 C103.77426925 4.6340149 101.16074946 4.63738371 98.54698944 4.63515854 C94.41170244 4.63232862 90.27658675 4.64666646 86.14134216 4.66413879 C74.38113495 4.7111929 62.62093861 4.73509894 50.86064148 4.74162292 C44.36787875 4.74537685 37.87530913 4.76343542 31.38262916 4.79671729 C27.27461618 4.81691337 23.16710192 4.81931028 19.05905962 4.80843711 C15.89648923 4.80521098 12.7340844 4.82793632 9.57157898 4.84660339 C8.43680115 4.83843094 7.30202332 4.83025848 6.13285828 4.82183838 C0.17228882 4.88448692 -3.95067081 5.02229994 -8.46064758 9.36076355 C-12.43310402 14.76093204 -11.88116763 20.67480621 -11.84541321 27.10173035 C-11.85078598 28.27796967 -11.85615875 29.45420898 -11.86169434 30.66609192 C-11.87146381 33.21476284 -11.87441901 35.76346699 -11.87133789 38.31215477 C-11.866862 42.34202309 -11.88042375 46.37144305 -11.8997345 50.40124512 C-11.94074271 59.67788499 -11.95214379 68.95451649 -11.96326447 78.23123169 C-11.97377032 86.74407235 -11.99051007 95.25677632 -12.03136015 103.7695325 C-12.04671677 107.11917249 -12.0556154 110.46858276 -12.04995728 113.81825829 C-12.04545715 117.54833169 -12.05876762 121.27795292 -12.07588196 125.00798035 C-12.06973373 126.11920761 -12.06358551 127.23043488 -12.05725098 128.37533569 C-12.06545364 129.38890137 -12.07365631 130.40246704 -12.08210754 131.44674683 C-12.08317631 132.7693528 -12.08317631 132.7693528 -12.08426666 134.11867809 C-12.53411296 136.79839374 -13.38051648 137.68003139 -15.46064758 139.36076355 C-15.57750072 122.51455468 -15.66564523 105.66847246 -15.71970844 88.82195091 C-15.7454793 80.99962686 -15.78060806 73.17755477 -15.83784485 65.35539246 C-15.88771453 58.53678614 -15.91994674 51.71836231 -15.93109006 44.89957869 C-15.93760294 41.28969391 -15.95288555 37.68033116 -15.98929787 34.07061386 C-16.02963852 30.0386779 -16.03059476 26.0076468 -16.02827454 21.97550964 C-16.04625092 20.78148529 -16.06422729 19.58746094 -16.08274841 18.35725403 C-16.02644664 9.3296676 -16.02644664 9.3296676 -13.2376709 5.75984192 C-8.88947783 2.00342552 -5.82817993 -0.01715853 0 0 Z " fill="#0072E3" transform="translate(38.46064758300781,17.639236450195313)"/>
<path d="M0 0 C1.04085251 0.00015106 2.08170502 0.00030212 3.15409851 0.00045776 C4.27605118 0.01078033 5.39800385 0.02110291 6.55395508 0.03173828 C7.70390457 0.03456818 8.85385406 0.03739807 10.03865051 0.04031372 C13.71703429 0.05152245 17.39517595 0.07662854 21.07348633 0.10205078 C23.56501927 0.11207967 26.05655603 0.12120568 28.5480957 0.12939453 C34.66080874 0.15146406 40.77338024 0.18494854 46.88598633 0.22705078 C46.55598633 1.54705078 46.22598633 2.86705078 45.88598633 4.22705078 C45.00941879 4.23918106 45.00941879 4.23918106 44.11514282 4.2515564 C38.04829658 4.33742642 31.98178373 4.43692153 25.9152832 4.54443359 C23.64938951 4.58278349 21.38343368 4.61762561 19.11743164 4.64892578 C15.86557766 4.69444605 12.61415373 4.75246154 9.36254883 4.81298828 C8.34480377 4.82453949 7.32705872 4.8360907 6.2784729 4.84799194 C5.33764862 4.86786163 4.39682434 4.88773132 3.42749023 4.90820312 C2.18172714 4.92818863 2.18172714 4.92818863 0.91079712 4.94857788 C-1.34014982 5.0504062 -1.34014982 5.0504062 -3.11401367 7.22705078 C-3.33160196 9.96604021 -3.42543 12.60693911 -3.43286133 15.34863281 C-3.44290695 16.18773193 -3.45295258 17.02683105 -3.46330261 17.89135742 C-3.49426153 20.67251889 -3.51120487 23.45358356 -3.52807617 26.23486328 C-3.54677761 28.16015463 -3.56635025 30.08543769 -3.58676147 32.01071167 C-3.6381969 37.08399584 -3.67776141 42.15730663 -3.71490479 47.23071289 C-3.75487307 52.40534102 -3.80599805 57.57985737 -3.85620117 62.75439453 C-3.95309549 72.91186823 -4.03745689 83.06940487 -4.11401367 93.22705078 C-4.44401367 93.22705078 -4.77401367 93.22705078 -5.11401367 93.22705078 C-5.60901367 90.25705078 -5.60901367 90.25705078 -6.11401367 87.22705078 C-6.77401367 88.21705078 -7.43401367 89.20705078 -8.11401367 90.22705078 C-8.1834162 78.7878562 -8.23677525 67.3487114 -8.26945019 55.90934944 C-8.28512973 50.59801949 -8.30640965 45.28683319 -8.34033203 39.97558594 C-8.37284401 34.85331682 -8.39084943 29.73118618 -8.3986454 24.60882187 C-8.40420362 22.65110976 -8.41505695 20.69340552 -8.43120384 18.73575211 C-8.45286977 16.00107482 -8.45598517 13.26697536 -8.45458984 10.53222656 C-8.46537567 9.71655212 -8.4761615 8.90087769 -8.48727417 8.06048584 C-8.47477722 5.80838013 -8.47477722 5.80838013 -8.11401367 2.22705078 C-4.80878563 0.02356542 -3.83740368 -0.01858307 0 0 Z " fill="#0070DE" transform="translate(64.114013671875,41.77294921875)"/>
<path d="M0 0 C1 2 1 2 0.0625 5.1875 C-1.00248409 9.00891349 -1.23657711 12.05704819 -1 16 C0.73956658 17.73956658 3.1936622 17.37190386 5.5625 17.5625 C6.57441406 17.64628906 7.58632812 17.73007813 8.62890625 17.81640625 C9.41136719 17.87699219 10.19382813 17.93757813 11 18 C8.57110325 22.32621677 5.66038187 26.08484637 2.5625 29.9375 C-0.84243008 34.1787287 -3.99965206 38.45644031 -7 43 C-8.3309182 44.76774548 -9.68441902 46.51876917 -11.0625 48.25 C-11.73410156 49.10078125 -12.40570313 49.9515625 -13.09765625 50.828125 C-15 53 -15 53 -18 55 C-16 49 -14 43 -12 37 C-13.66342837 35.33657163 -15.7825709 35.63951903 -18.0625 35.4375 C-18.98160156 35.35371094 -19.90070313 35.26992187 -20.84765625 35.18359375 C-21.91306641 35.09271484 -21.91306641 35.09271484 -23 35 C-19.18942143 28.81727319 -15.20094831 22.81379764 -10.9375 16.9375 C-6.97099871 11.46594683 -3.33550654 5.88459283 0 0 Z " fill="#090F16" transform="translate(106,61)"/>
<path d="M0 0 C4.52633178 2.69424511 7.95522074 6.55316221 9.625 11.5625 C9.71518676 13.27533272 9.74696119 14.99150627 9.74525452 16.70671082 C9.74731651 18.30317192 9.74731651 18.30317192 9.74942017 19.93188477 C9.74582489 21.09929199 9.74222961 22.26669922 9.73852539 23.46948242 C9.73867142 24.69887039 9.73881744 25.92825836 9.7389679 27.19490051 C9.73839016 30.56654012 9.73337112 33.93811866 9.72639394 37.30974746 C9.72014726 40.83314952 9.71955556 44.35655237 9.71836853 47.87995911 C9.7152591 54.5522353 9.70705092 61.22449512 9.69701904 67.8967641 C9.68584588 75.49281747 9.68034442 83.08887162 9.67532361 90.68493116 C9.664868 106.31079692 9.64727605 121.93664635 9.625 137.5625 C6.95403915 134.50632738 6.24977463 132.63182454 6.24645996 128.59069824 C6.23825729 127.58969589 6.23005463 126.58869354 6.22160339 125.55735779 C6.22775162 124.46528519 6.23389984 123.37321259 6.24023438 122.24804688 C6.2348616 121.09321304 6.22948883 119.93837921 6.22395325 118.74855042 C6.21416652 116.24022598 6.21123378 113.73186765 6.21430969 111.223526 C6.21877776 107.25660492 6.20524539 103.2899749 6.18591309 99.32312012 C6.14484998 90.18688454 6.13351297 81.05065702 6.12238312 71.91434479 C6.1118756 63.53985306 6.09509976 55.16550029 6.05428743 46.7910943 C6.03297161 42.212807 6.034791 37.63483975 6.04040527 33.05651855 C6.03106776 30.6633265 6.02089972 28.27013749 6.00976562 25.87695312 C6.01591385 24.78488052 6.02206207 23.69280792 6.02839661 22.56764221 C6.02019394 21.56663986 6.01199127 20.56563751 6.00354004 19.53430176 C6.00282753 18.66563728 6.00211502 17.79697281 6.00138092 16.90198517 C5.54159841 14.0440976 4.49792688 12.7347154 2.625 10.5625 C1.635 9.2321875 1.635 9.2321875 0.625 7.875 C-1.23635195 5.3250004 -1.23635195 5.3250004 -4.375 4.5625 C-6.06220226 4.46103125 -7.75307473 4.41624467 -9.44328308 4.40428162 C-10.49076218 4.3944928 -11.53824127 4.38470398 -12.61746216 4.37461853 C-14.34052078 4.36598534 -14.34052078 4.36598534 -16.09838867 4.35717773 C-17.3082695 4.34727814 -18.51815033 4.33737854 -19.76469421 4.32717896 C-23.08258731 4.30098548 -26.40045627 4.2791258 -29.71838927 4.25917697 C-33.18576506 4.23731016 -36.65309712 4.20992487 -40.12043762 4.18312073 C-46.68643412 4.13320324 -53.25245491 4.08826091 -59.81849891 4.04509836 C-67.29366669 3.99571792 -74.76879058 3.94080278 -82.24391592 3.88541877 C-97.62090339 3.77161322 -112.99793122 3.66477108 -128.375 3.5625 C-128.375 3.2325 -128.375 2.9025 -128.375 2.5625 C-127.43739775 2.55753478 -127.43739775 2.55753478 -126.48085403 2.55246925 C-111.27441062 2.47126324 -96.06807539 2.37917872 -80.86177444 2.27497292 C-73.50813122 2.22484242 -66.15449918 2.17839958 -58.80078125 2.140625 C-52.39158496 2.1076929 -45.98247525 2.06785499 -39.57337451 2.01970994 C-36.17952774 1.99445699 -32.78573831 1.97267221 -29.39182281 1.95915604 C-25.60386165 1.94233526 -21.81617968 1.91330967 -18.02832031 1.88134766 C-16.90191132 1.87918747 -15.77550232 1.87702728 -14.61495972 1.87480164 C-13.58293427 1.86363815 -12.55090881 1.85247467 -11.48760986 1.8409729 C-10.59162708 1.83544214 -9.6956443 1.82991138 -8.77251053 1.82421303 C-5.35773903 1.45145546 -3.399339 -0.62619403 0 0 Z " fill="#0162C2" transform="translate(164.375,19.4375)"/>
<path d="M0 0 C0.07003799 16.50691012 0.12296254 33.01377214 0.15543652 49.52079487 C0.17091459 57.18505631 0.19202196 64.8492255 0.22631836 72.51342773 C0.25619207 79.19246884 0.27556816 85.87144315 0.28226548 92.55054921 C0.28618122 96.08809278 0.29540297 99.62544523 0.31719017 103.16292763 C0.34129777 107.10906214 0.3419713 111.05500858 0.34057617 115.0012207 C0.351362 116.17797867 0.36214783 117.35473663 0.3732605 118.56715393 C0.36913651 119.63987549 0.36501251 120.71259705 0.36076355 121.81782532 C0.36352893 122.75160161 0.36629431 123.6853779 0.36914349 124.64745045 C-0.06442144 127.4105575 -0.84655785 128.28576958 -3 130 C-3 128.35 -3 126.7 -3 125 C-3.33 125 -3.66 125 -4 125 C-4.07001391 108.99735507 -4.12295068 92.99475965 -4.15543652 76.99199867 C-4.17091972 69.56199658 -4.19203682 62.13208953 -4.22631836 54.70214844 C-4.25617644 48.22784182 -4.27556442 41.75360402 -4.28226548 35.27923048 C-4.28618389 31.84958657 -4.2954224 28.42013956 -4.31719017 24.99055862 C-4.34126679 21.1663564 -4.34197231 17.34234857 -4.34057617 13.51806641 C-4.351362 12.37511612 -4.36214783 11.23216583 -4.3732605 10.05458069 C-4.36913651 9.01689041 -4.36501251 7.97920013 -4.36076355 6.9100647 C-4.36352893 6.00486399 -4.36629431 5.09966328 -4.36914349 4.16703224 C-4.24732614 3.4519116 -4.12550879 2.73679096 -4 2 C-1 0 -1 0 0 0 Z " fill="#0073E3" transform="translate(173,32)"/>
<path d="M0 0 C2.93847653 -0.107834 5.87301151 -0.18721916 8.8125 -0.25 C9.64587891 -0.28351562 10.47925781 -0.31703125 11.33789062 -0.3515625 C17.43603219 -0.44952461 17.43603219 -0.44952461 20.13671875 1.703125 C21 4 21 4 20.56678772 6.10319519 C19.81441514 9.94850875 19.82258569 13.7428862 19.79467773 17.64575195 C19.77982834 18.93431847 19.77982834 18.93431847 19.76467896 20.24891663 C19.73317787 23.07867713 19.70835168 25.90845439 19.68359375 28.73828125 C19.66301438 30.70412117 19.64201765 32.66995677 19.62062073 34.63578796 C19.56550158 39.80274952 19.51604759 44.96975034 19.46777344 50.13677979 C19.41748416 55.41218549 19.3618369 60.68753438 19.30664062 65.96289062 C19.19918331 76.30854518 19.09771085 86.65424913 19 97 C17.02 97.495 17.02 97.495 15 98 C15.33 67.31 15.66 36.62 16 5 C10.39 5 4.78 5 -1 5 C-0.67 3.35 -0.34 1.7 0 0 Z " fill="#0166CB" transform="translate(122,42)"/>
<path d="M0 0 C40.59 0.33 81.18 0.66 123 1 C123 1.33 123 1.66 123 2 C108.15 2.33 93.3 2.66 78 3 C84.27 3.33 90.54 3.66 97 4 C97 4.33 97 4.66 97 5 C68.29 5 39.58 5 10 5 C13.83694953 3.08152523 15.07650751 2.752854 19.13574219 2.77294922 C20.68817627 2.77331177 20.68817627 2.77331177 22.27197266 2.77368164 C23.35269043 2.78391357 24.4334082 2.79414551 25.546875 2.8046875 C26.54541504 2.80670166 27.54395508 2.80871582 28.57275391 2.81079102 C32.29854941 2.82124562 36.02427938 2.84916822 39.75 2.875 C48.0825 2.91625 56.415 2.9575 65 3 C33.32 2.505 33.32 2.505 1 2 C0.67 1.34 0.34 0.68 0 0 Z " fill="#0075E6" transform="translate(35,165)"/>
<path d="M0 0 C3.37617734 0.38584884 4.86254954 0.88316711 7.5 3.125 C9.82108979 5.26902568 9.82108979 5.26902568 12.5625 4.9375 C15.04837513 4.12431808 15.04837513 4.12431808 16.9375 2.4375 C19.83665711 0.41687535 21.5267557 0.5137458 25 1 C27.02613283 2.29327628 29.02514795 3.6296945 31 5 C33.31347872 5.73260159 35.645752 6.411438 38 7 C38.66 7.33 39.32 7.66 40 8 C35.87878788 12 35.87878788 12 32 12 C29 11 29 11 26.4375 8.875 C24.17376856 6.72702804 24.17376856 6.72702804 21.4375 7.0625 C18.95470773 7.86737886 18.95470773 7.86737886 17.125 9.5625 C13.82921099 11.79200433 11.90453235 11.65075539 8 11 C4.93197088 9.03345244 2.25063106 6.87613112 0 4 C0 2.68 0 1.36 0 0 Z " fill="#006CD3" transform="translate(87,134)"/>
<path d="M0 0 C0.94101563 0.00322266 1.88203125 0.00644531 2.8515625 0.00976562 C3.83640625 0.01814453 4.82125 0.02652344 5.8359375 0.03515625 C6.82851562 0.03966797 7.82109375 0.04417969 8.84375 0.04882812 C11.2995391 0.0606348 13.75520854 0.07710225 16.2109375 0.09765625 C16.59312517 1.75380282 16.92488852 3.42222649 17.2109375 5.09765625 C16.2109375 6.09765625 16.2109375 6.09765625 13.98608398 6.21118164 C13.02774658 6.20594482 12.06940918 6.20070801 11.08203125 6.1953125 C9.53032227 6.19047852 9.53032227 6.19047852 7.94726562 6.18554688 C6.85865234 6.17716797 5.77003906 6.16878906 4.6484375 6.16015625 C3.0097168 6.15338867 3.0097168 6.15338867 1.33789062 6.14648438 C-1.37114745 6.13465451 -4.08007849 6.11817168 -6.7890625 6.09765625 C-6.7890625 4.44765625 -6.7890625 2.79765625 -6.7890625 1.09765625 C-4.33631109 -0.12871945 -2.7384844 -0.01649689 0 0 Z " fill="#0164C6" transform="translate(108.7890625,114.90234375)"/>
<path d="M0 0 C7.26 0 14.52 0 22 0 C21.67 1.65 21.34 3.3 21 5 C14.07 5 7.14 5 0 5 C0 3.35 0 1.7 0 0 Z " fill="#006CD4" transform="translate(74,58)"/>
<path d="M0 0 C5.28 0 10.56 0 16 0 C15.67 1.65 15.34 3.3 15 5 C9.72 5 4.44 5 -1 5 C-0.67 3.35 -0.34 1.7 0 0 Z " fill="#006DD6" transform="translate(111,103)"/>
<path d="M0 0 C0.57492188 0.21914063 1.14984375 0.43828125 1.7421875 0.6640625 C0.2571875 2.1490625 0.2571875 2.1490625 -1.2578125 3.6640625 C-0.9278125 4.3240625 -0.5978125 4.9840625 -0.2578125 5.6640625 C-1.4025 6.2828125 -1.4025 6.2828125 -2.5703125 6.9140625 C-5.1944767 8.62282059 -6.56103226 10.07424003 -8.2578125 12.6640625 C-8.5878125 11.6740625 -8.9178125 10.6840625 -9.2578125 9.6640625 C-10.2478125 9.9940625 -11.2378125 10.3240625 -12.2578125 10.6640625 C-11.10040403 5.74507652 -8.14440043 3.64876725 -4.328125 0.703125 C-2.2578125 -0.3359375 -2.2578125 -0.3359375 0 0 Z " fill="#016BD0" transform="translate(35.2578125,18.3359375)"/>
<path d="M0 0 C3.63 0 7.26 0 11 0 C11 1.65 11 3.3 11 5 C7.37 5 3.74 5 0 5 C0 3.35 0 1.7 0 0 Z " fill="#006CD4" transform="translate(74,70)"/>
<path d="M0 0 C0.99 0.33 1.98 0.66 3 1 C2.67 2.98 2.34 4.96 2 7 C-0.33333333 7 -2.66666667 7 -5 7 C-4.67 6.34 -4.34 5.68 -4 5 C-7.3 4.67 -10.6 4.34 -14 4 C-14 3.67 -14 3.34 -14 3 C-10.04 3 -6.08 3 -2 3 C-2 2.34 -2 1.68 -2 1 C-1.34 0.67 -0.68 0.34 0 0 Z " fill="#0068CC" transform="translate(120,75)"/>
<path d="M0 0 C2.64 0 5.28 0 8 0 C8.33 0.99 8.66 1.98 9 3 C11.31 3.33 13.62 3.66 16 4 C16 4.33 16 4.66 16 5 C10.39 5 4.78 5 -1 5 C-0.67 3.35 -0.34 1.7 0 0 Z " fill="#0164C4" transform="translate(122,42)"/>
<path d="M0 0 C-2.50100574 1.25050287 -4.00343052 1.02993449 -6.7890625 0.87890625 C-7.73007813 0.83056641 -8.67109375 0.78222656 -9.640625 0.73242188 C-10.62546875 0.67634766 -11.6103125 0.62027344 -12.625 0.5625 C-13.61757812 0.51029297 -14.61015625 0.45808594 -15.6328125 0.40429688 C-18.08884568 0.27441051 -20.5444936 0.13943836 -23 0 C-23 -0.33 -23 -0.66 -23 -1 C-19.54254978 -1.22527296 -16.08412975 -1.42733544 -12.625 -1.625 C-11.64015625 -1.68945312 -10.6553125 -1.75390625 -9.640625 -1.8203125 C-8.69960937 -1.871875 -7.75859375 -1.9234375 -6.7890625 -1.9765625 C-5.91975098 -2.02893066 -5.05043945 -2.08129883 -4.15478516 -2.13525391 C-2 -2 -2 -2 0 0 Z " fill="#090102" transform="translate(97,64)"/>
</svg>
